<svg xmlns="http://www.w3.org/2000/svg" viewBox="0 0 1000 500" fill="none">
  <defs>
    <pattern id="dots" patternUnits="userSpaceOnUse" width="8" height="8">
      <circle cx="2" cy="2" r="1" fill="#94a3b8" fill-opacity="0.4"/>
    </pattern>
  </defs>
  
  <!-- World map with dotted fill for cleaner look -->
  <g fill="url(#dots)" stroke="#64748b" stroke-width="0.5" stroke-opacity="0.3">
    <!-- North America - Canada/Alaska -->
    <path d="M50,65 C65,55 95,48 130,50 C165,52 200,62 225,82 C250,102 265,130 260,160 C255,190 235,215 200,230 C165,245 120,248 85,235 C50,222 25,195 20,160 C15,125 30,90 50,65 Z"/>
    
    <!-- USA -->
    <path d="M60,185 C85,175 120,175 155,190 C190,205 215,235 225,270 C235,305 220,340 190,360 C160,380 115,385 80,370 C45,355 25,320 25,280 C25,240 40,205 60,185 Z"/>
    
    <!-- Central America -->
    <path d="M160,350 C175,340 195,345 210,365 C225,385 230,410 220,435 C210,460 185,475 160,470 C135,465 120,445 120,420 C120,395 140,365 160,350 Z"/>
    
    <!-- Greenland -->
    <path d="M280,30 C310,22 345,28 375,48 C405,68 425,100 420,135 C415,170 390,200 355,210 C320,220 280,210 255,185 C230,160 225,125 240,95 C255,65 280,30 280,30 Z"/>
    
    <!-- South America -->
    <path d="M180,420 C210,410 245,420 275,450 C305,480 325,525 330,575 C335,625 320,680 285,720 C250,760 200,785 155,780 C110,775 75,745 60,700 C45,655 55,600 80,555 C105,510 145,465 180,420 Z"/>
    
    <!-- UK -->
    <path d="M420,100 C435,92 455,98 470,115 C485,132 490,155 480,175 C470,195 445,210 420,205 C395,200 378,180 380,155 C382,130 400,110 420,100 Z"/>
    
    <!-- Europe -->
    <path d="M460,85 C500,72 550,78 595,102 C640,126 675,165 685,210 C695,255 675,305 635,340 C595,375 540,395 485,390 C430,385 380,355 355,310 C330,265 335,210 365,165 C395,120 430,95 460,85 Z"/>
    
    <!-- Scandinavia -->
    <path d="M485,30 C515,20 555,28 590,52 C625,76 650,115 655,160 C660,205 640,250 600,280 C560,310 510,325 465,315 C420,305 385,270 375,230 C365,190 385,148 420,115 C455,82 485,30 485,30 Z"/>
    
    <!-- Africa -->
    <path d="M455,300 C510,285 575,305 630,355 C685,405 720,475 725,550 C730,625 700,700 645,755 C590,810 515,845 440,840 C365,835 300,790 265,725 C230,660 230,580 265,515 C300,450 365,395 430,355 C455,340 455,300 455,300 Z"/>
    
    <!-- Middle East -->
    <path d="M555,255 C595,240 645,255 685,295 C725,335 750,390 745,450 C740,510 705,565 655,595 C605,625 545,630 495,605 C445,580 415,530 415,475 C415,420 445,370 490,330 C525,295 555,255 555,255 Z"/>
    
    <!-- Russia/Northern Asia -->
    <path d="M600,25 C680,12 775,30 855,78 C935,126 995,200 1015,285 C1035,370 1010,460 955,530 C900,600 815,650 725,665 C635,680 545,660 475,608 C405,556 365,480 375,400 C385,320 445,250 520,200 C595,150 600,25 600,25 Z"/>
    
    <!-- India -->
    <path d="M665,380 C710,365 765,385 810,430 C855,475 885,540 880,610 C875,680 835,745 780,785 C725,825 655,840 595,820 C535,800 495,750 490,695 C485,640 515,580 565,535 C615,490 665,380 665,380 Z"/>
    
    <!-- Southeast Asia -->
    <path d="M760,450 C810,435 870,460 920,510 C970,560 1005,630 1000,700 C995,770 950,835 890,875 C830,915 755,930 690,910 C625,890 575,840 565,780 C555,720 590,655 645,605 C700,555 760,450 760,450 Z"/>
    
    <!-- Japan -->
    <path d="M890,175 C920,162 958,178 985,215 C1012,252 1025,302 1010,350 C995,398 958,440 915,460 C872,480 822,475 788,445 C754,415 740,368 755,325 C770,282 815,248 865,225 C890,210 890,175 890,175 Z"/>
    
    <!-- Philippines/Indonesia -->
    <path d="M870,490 C915,475 968,498 1010,548 C1052,598 1075,665 1065,730 C1055,795 1010,855 955,890 C900,925 835,935 780,915 C725,895 688,848 685,795 C682,742 718,692 768,655 C818,618 870,490 870,490 Z"/>
    
    <!-- Australia -->
    <path d="M830,580 C895,560 975,585 1040,645 C1105,705 1150,790 1155,880 C1160,970 1120,1060 1055,1120 C990,1180 900,1210 815,1195 C730,1180 660,1120 625,1040 C590,960 600,865 650,790 C700,715 780,660 830,580 Z" transform="scale(0.5) translate(1600, 800)"/>
    
    <!-- New Zealand -->
    <path d="M955,420 C980,410 1010,425 1032,458 C1054,491 1062,535 1048,575 C1034,615 1002,648 965,660 C928,672 888,662 862,632 C836,602 828,558 842,520 C856,482 892,452 932,435 C955,425 955,420 955,420 Z"/>
  </g>
</svg>
